<?xml version="1.0" encoding="iso-8859-1"?>
<svg version="1.1" xmlns="http://www.w3.org/2000/svg" xmlns:xlink="http://www.w3.org/1999/xlink" x="0px" y="0px" viewBox="0 0 512 512" style="enable-background:new 0 0 512 512;" xml:space="preserve">
   <circle style="fill:#A53535;" cx="256" cy="267" r="245" />
   <path style="fill:#D9EAFC;" d="M61.914,416.511C106.715,474.582,176.982,512,256,512c47.739,0,92.279-13.668,129.948-37.284V134.345       H61.914V416.511z" />
   <path style="fill:#C3DDF4;" d="M81.756,134.345H61.914v282.166c6.144,7.964,12.783,15.524,19.842,22.668V134.345z" />
   <rect x="61.914" y="35.902" style="fill:#02AF8E;" width="324.03" height="99.44" />
   <rect x="61.914" y="35.902" style="fill:#0F9390;" width="19.842" height="99.44" />
   <path style="fill:#1A2B63;" d="M376.391,0H71.472c-5.257,0-9.558,4.301-9.558,9.558v27.344h324.034V9.558       C385.948,4.301,381.647,0,376.391,0z" />
   <path style="fill:#52BBEF;" d="M347.98,295.832c0,1.965-1.608,3.573-3.572,3.573H201.505c-1.965,0-3.572-1.608-3.572-3.573v-95.744       c0-1.965,1.607-3.573,3.572-3.573h142.903c1.965,0,3.572,1.607,3.572,3.573V295.832z" />
   <path style="fill:#1E99D6;" d="M217.775,295.832v-95.744c0-1.965,1.607-3.573,3.572-3.573h-19.842c-1.965,0-3.572,1.607-3.572,3.573       v95.744c0,1.965,1.607,3.573,3.572,3.573h19.842C219.382,299.404,217.775,297.796,217.775,295.832z" />
   <path style="fill:#02AF8E;" d="M313.711,252.456c-1.267-1.502-3.339-1.502-4.605,0l-18.573,22.036c-1.267,1.502-3.338,1.502-4.604,0       l-35.059-41.591c-1.267-1.502-3.338-1.502-4.604,0l-48.332,57.339v5.591c0,1.965,1.607,3.573,3.572,3.573h142.903       c1.965,0,3.572-1.608,3.572-3.573v-2.72L313.711,252.456z" />
   <circle style="fill:#FFD00D;" cx="326.33" cy="216.58" r="10.718" />
   <g>
      <path style="fill:#1E99D6;" d="M342.984,329.464H205.797c-4.142,0-7.5-3.358-7.5-7.5s3.358-7.5,7.5-7.5h137.188          c4.142,0,7.5,3.358,7.5,7.5S347.126,329.464,342.984,329.464z" />
      <path style="fill:#1E99D6;" d="M342.984,355.098H205.797c-4.142,0-7.5-3.358-7.5-7.5s3.358-7.5,7.5-7.5h137.188          c4.142,0,7.5,3.358,7.5,7.5C350.484,351.74,347.126,355.098,342.984,355.098z" />
      <path style="fill:#1E99D6;" d="M342.984,380.732H205.797c-4.142,0-7.5-3.358-7.5-7.5s3.358-7.5,7.5-7.5h137.188          c4.142,0,7.5,3.358,7.5,7.5C350.484,377.375,347.126,380.732,342.984,380.732z" />
      <path style="fill:#1E99D6;" d="M342.984,406.367H205.797c-4.142,0-7.5-3.358-7.5-7.5s3.358-7.5,7.5-7.5h137.188          c4.142,0,7.5,3.358,7.5,7.5S347.126,406.367,342.984,406.367z" />
      <path style="fill:#1E99D6;" d="M274.665,432.001h-68.868c-4.142,0-7.5-3.358-7.5-7.5s3.358-7.5,7.5-7.5h68.868          c4.142,0,7.5,3.358,7.5,7.5S278.807,432.001,274.665,432.001z" />
      <path style="fill:#1E99D6;" d="M274.665,184.001h-68.868c-4.142,0-7.5-3.358-7.5-7.5s3.358-7.5,7.5-7.5h68.868          c4.142,0,7.5,3.358,7.5,7.5S278.807,184.001,274.665,184.001z" />
   </g>
   <g>
      <path style="fill:#EEF6FF;" d="M97.709,379.863c0-2.75,2.25-5,5-5h66.461c2.75,0,5,2.25,5,5v46.806c0,2.75-2.25,5-5,5h-66.461          c-2.75,0-5-2.25-5-5V379.863z" />
      <path style="fill:#EEF6FF;" d="M97.709,311.824c0-2.75,2.25-5,5-5h66.461c2.75,0,5,2.25,5,5v46.806c0,2.75-2.25,5-5,5h-66.461          c-2.75,0-5-2.25-5-5V311.824z" />
   </g>
   <g>
      <path style="fill:#FFDD8D;" d="M97.709,243.785c0-2.75,2.25-5,5-5h66.461c2.75,0,5,2.25,5,5v46.806c0,2.75-2.25,5-5,5h-66.461          c-2.75,0-5-2.25-5-5V243.785z" />
      <path style="fill:#FFDD8D;" d="M97.709,175.746c0-2.75,2.25-5,5-5h66.461c2.75,0,5,2.25,5,5v46.806c0,2.75-2.25,5-5,5h-66.461          c-2.75,0-5-2.25-5-5V175.746z" />
   </g>
   <g>
      <path style="fill:#C3DDF4;" d="M117.551,426.669v-46.806c0-2.75,2.25-5,5-5h-19.842c-2.75,0-5,2.25-5,5v46.806c0,2.75,2.25,5,5,5          h19.842C119.801,431.669,117.551,429.419,117.551,426.669z" />
      <path style="fill:#C3DDF4;" d="M117.551,358.63v-46.806c0-2.75,2.25-5,5-5h-19.842c-2.75,0-5,2.25-5,5v46.806c0,2.75,2.25,5,5,5          h19.842C119.801,363.63,117.551,361.38,117.551,358.63z" />
   </g>
   <g>
      <path style="fill:#FF9F60;" d="M117.551,290.591v-46.806c0-2.75,2.25-5,5-5h-19.842c-2.75,0-5,2.25-5,5v46.806c0,2.75,2.25,5,5,5          h19.842C119.801,295.591,117.551,293.341,117.551,290.591z" />
      <path style="fill:#FF9F60;" d="M117.551,222.552v-46.806c0-2.75,2.25-5,5-5h-19.842c-2.75,0-5,2.25-5,5v46.806c0,2.75,2.25,5,5,5          h19.842C119.801,227.552,117.551,225.302,117.551,222.552z" />
   </g>
   <g>
      <path style="fill:#FFFFFF;" d="M308.966,105.576h-170.07c-4.142,0-7.5-3.358-7.5-7.5s3.358-7.5,7.5-7.5h170.07          c4.142,0,7.5,3.358,7.5,7.5C316.466,102.218,313.108,105.576,308.966,105.576z" />
      <path style="fill:#FFFFFF;" d="M266.189,77.345h-84.516c-4.142,0-7.5-3.358-7.5-7.5s3.358-7.5,7.5-7.5h84.516          c4.142,0,7.5,3.358,7.5,7.5S270.331,77.345,266.189,77.345z" />
   </g>
   <path style="fill:#FE3745;" d="M84.851,26.151c-2.045,0-4.037-0.827-5.482-2.262c-1.436-1.445-2.261-3.438-2.261-5.482       c0-2.035,0.825-4.027,2.261-5.472c1.445-1.446,3.438-2.271,5.482-2.271c2.033,0,4.036,0.826,5.471,2.271       c1.446,1.445,2.272,3.437,2.272,5.472c0,2.044-0.826,4.036-2.272,5.482C88.887,25.324,86.884,26.151,84.851,26.151z" />
   <path style="fill:#FFD00D;" d="M110.242,26.151c-2.034,0-4.037-0.827-5.473-2.272c-1.444-1.435-2.271-3.427-2.271-5.471       c0-2.035,0.826-4.027,2.271-5.472c1.446-1.446,3.438-2.271,5.473-2.271c2.044,0,4.036,0.826,5.482,2.271       c1.435,1.445,2.261,3.437,2.261,5.472c0,2.034-0.826,4.036-2.261,5.471C114.278,25.324,112.286,26.151,110.242,26.151z" />
   <path style="fill:#37C47A;" d="M135.645,26.151c-2.044,0-4.037-0.827-5.472-2.262c-1.445-1.445-2.271-3.438-2.271-5.482       c0-2.035,0.826-4.027,2.271-5.472c1.435-1.446,3.428-2.271,5.472-2.271c2.034,0,4.037,0.826,5.472,2.271       c1.445,1.445,2.271,3.437,2.271,5.472c0,2.044-0.826,4.036-2.271,5.482C139.671,25.324,137.679,26.151,135.645,26.151z" />
   <path style="fill:#F87EAB;" d="M404.248,382.582c0,11.351,9.287,20.638,20.638,20.638h2.064c11.351,0,20.638-9.288,20.638-20.638       v-13.413h-43.34V382.582z" />
   <path style="fill:#FFE2B8;" d="M445.335,50.904l-17.163-35.346c-1.239-2.553-3.268-2.553-4.507,0l-17.163,35.346       c-1.239,2.552-2.254,6.963-2.254,9.801v9.722h43.34v-9.722C447.588,57.867,446.575,53.456,445.335,50.904z" />
   <rect x="404.25" y="69.4" style="fill:#FFAF10;" width="43.34" height="300.81" />
   <rect x="404.25" y="69.4" style="fill:#FF9518;" width="19.842" height="300.81" />
   <path style="fill:#293D7C;" d="M423.665,15.558l-9.605,19.779h23.716l-9.604-19.779C426.933,13.004,424.905,13.004,423.665,15.558z" />
</svg>