<?xml version="1.0" encoding="iso-8859-1"?>
<svg viewBox="0 0 512 512" xmlns="http://www.w3.org/2000/svg">
    <g>
        <path d="m489.849 422.714h-467.698c-12.234 0-22.151-9.917-22.151-22.151v-289.126c0-12.233 9.917-22.151 22.151-22.151h467.699c12.233 0 22.151 9.917 22.151 22.151v289.127c-.001 12.233-9.918 22.15-22.152 22.15z" fill="#ffe07d" />
        <path d="m489.849 89.286h-28.33c12.233 0 22.151 9.917 22.151 22.151v289.127c0 12.233-9.917 22.151-22.151 22.151h28.33c12.233 0 22.151-9.917 22.151-22.151v-289.127c0-12.234-9.917-22.151-22.151-22.151z" fill="#ffd064" />
        <path d="m137.193 309.734h-49.878c-3.35 0-6.066-2.716-6.066-6.066v-51.37c0-14.197 11.509-25.707 25.707-25.707h10.596c14.197 0 25.707 11.509 25.707 25.707v51.37c0 3.351-2.716 6.066-6.066 6.066z" fill="#9dc6fb" />
        <path d="m117.552 226.591h-10.596c-1.484 0-2.936.133-4.351.374 12.124 2.068 21.355 12.619 21.355 25.332v51.37c0 3.35-2.716 6.066-6.066 6.066h19.299c3.35 0 6.066-2.716 6.066-6.066v-51.37c0-14.196-11.509-25.706-25.707-25.706z" fill="#80b4fb" />
        <path d="m112.254 239.875c-21.765 0-39.408-17.644-39.408-39.408v-19.333c0-11.088 8.988-20.076 20.076-20.076h38.665c11.088 0 20.076 8.988 20.076 20.076v19.333c-.001 21.764-17.644 39.408-39.409 39.408z" fill="#f1d0a5" />
        <path d="m131.587 161.058h-20.586c11.088 0 20.076 8.988 20.076 20.076v19.333c0 18.202-12.344 33.514-29.116 38.042 3.282.886 6.731 1.367 10.293 1.367 21.765 0 39.408-17.644 39.408-39.408v-19.333c0-11.088-8.988-20.077-20.075-20.077z" fill="#f1b986" />
        <g>
            <path d="m220.75 378.944c-4.268 0-7.726-3.459-7.726-7.726v-230.436c0-4.268 3.459-7.726 7.726-7.726s7.726 3.459 7.726 7.726v230.436c.001 4.267-3.458 7.726-7.726 7.726z" fill="#e49542" />
        </g>
        <g>
            <g>
                <path d="m444.459 180.271h-165.44c-4.268 0-7.726-3.459-7.726-7.726 0-4.268 3.459-7.726 7.726-7.726h165.441c4.268 0 7.726 3.459 7.726 7.726s-3.459 7.726-7.727 7.726z" fill="#21386b" />
            </g>
            <g>
                <path d="m444.459 235.908h-165.44c-4.268 0-7.726-3.459-7.726-7.726s3.459-7.726 7.726-7.726h165.441c4.268 0 7.726 3.459 7.726 7.726s-3.459 7.726-7.727 7.726z" fill="#21386b" />
            </g>
            <g>
                <path d="m444.459 291.544h-165.44c-4.268 0-7.726-3.459-7.726-7.726 0-4.268 3.459-7.726 7.726-7.726h165.441c4.268 0 7.726 3.459 7.726 7.726 0 4.268-3.459 7.726-7.727 7.726z" fill="#21386b" />
            </g>
            <g>
                <path d="m444.459 347.182h-165.44c-4.268 0-7.726-3.459-7.726-7.726s3.459-7.726 7.726-7.726h165.441c4.268 0 7.726 3.459 7.726 7.726s-3.459 7.726-7.727 7.726z" fill="#21386b" />
            </g>
        </g>
        <path d="m435.786 422.714h-42.746v-35.594c0-3.95 3.202-7.152 7.152-7.152h28.442c3.95 0 7.152 3.202 7.152 7.152z" fill="#e49542" />
        <path d="m428.634 132.032h-28.442c-3.95 0-7.152-3.202-7.152-7.152v-35.594h42.746v35.594c0 3.95-3.202 7.152-7.152 7.152z" fill="#e49542" />
        <g>
            <path d="m139.03 357.641h-53.552c-4.268 0-7.726-3.459-7.726-7.726 0-4.268 3.459-7.726 7.726-7.726h53.552c4.268 0 7.726 3.459 7.726 7.726s-3.459 7.726-7.726 7.726z" fill="#21386b" />
        </g>
    </g>
</svg>